# xmcd
#
# Track frame offsets:
#	150
#	14583
#	30593
#	45704
#	66503
#	83378
#	99985
#	119802
#	138031
#	154896
#	171632
#	190171
#	208973
#
# Disc length: 3123 seconds
#
# Revision: 0
# Processed by: cddbd v1.5.1PL2 Copyright (c) Steve Scherf et al.
# Submitted via: SynApp - FreeCDDB Version: 2.0
#
DISCID=b80c310d
DTITLE=Nelson and The Stagecoach - Winner and Losers
DYEAR=2000
DGENRE=Country
TTITLE0=Crazy
TTITLE1=Wanted man
TTITLE2=Walk away
TTITLE3=Rain by the hillside
TTITLE4=Sleepy town
TTITLE5=Here she town
TTITLE6=Heartache City
TTITLE7=Somebody
TTITLE8=Stuck in Mexico
TTITLE9=What my heart needs now
TTITLE10=X-Road
TTITLE11=Winners and Losers
TTITLE12=Pretend
EXTD=
EXTT0=
EXTT1=
EXTT2=
EXTT3=
EXTT4=
EXTT5=
EXTT6=
EXTT7=
EXTT8=
EXTT9=
EXTT10=
EXTT11=
EXTT12=
PLAYORDER=
